<svg width="19" height="18" viewBox="0 0 19 18" fill="none" xmlns="http://www.w3.org/2000/svg">
<path d="M9.33136 14.166C8.7871 14.166 4.0067 14.1569 2.63698 13.785C1.63011 13.5129 0.82279 12.7146 0.54159 11.7168C0.278532 10.2564 0.151539 8.85037 0.16061 7.46252C0.16061 6.10187 0.278532 4.70494 0.523448 3.3443C0.795578 2.24671 1.59382 1.42125 2.62791 1.13098C4.0067 0.759071 8.7871 0.75 9.33136 0.75C9.86655 0.75 14.6469 0.759071 15.9985 1.0947C17.0598 1.39404 17.8581 2.2195 18.1211 3.25359C18.1302 3.27173 18.1302 3.28987 18.1302 3.31708C18.3751 4.69587 18.5021 6.0928 18.493 7.48066C18.5021 8.8413 18.3751 10.2201 18.1302 11.5717C17.8581 12.6693 17.0598 13.4947 16.0257 13.785C14.656 14.1569 9.87562 14.166 9.33136 14.166V14.166ZM9.33136 2.56419C7.3811 2.56419 3.96135 2.64583 3.10867 2.87261C2.71862 2.98146 2.40114 3.30801 2.29229 3.71621C2.08365 4.92265 1.9748 6.20165 1.98387 7.47159C1.9748 8.75966 2.08366 10.0477 2.31043 11.3177C2.40114 11.6261 2.71862 11.9345 3.11775 12.0434C3.97042 12.2701 7.3811 12.3608 9.33136 12.3608C11.2816 12.3608 14.7014 12.2792 15.554 12.0434C15.9441 11.9345 16.2616 11.6079 16.3704 11.1998C16.5791 10.0115 16.697 8.74152 16.6879 7.48066C16.697 6.20165 16.5881 4.92265 16.3614 3.67085C16.2525 3.27173 15.9441 2.96332 15.545 2.84539C14.7104 2.63676 11.2907 2.56419 9.33136 2.56419Z" fill="white"/>
<path d="M7.64599 10.8381C7.49178 10.8381 7.3285 10.8019 7.19244 10.7112C6.91124 10.5479 6.73889 10.2485 6.73889 9.93105V5.02366C6.73889 4.6971 6.91124 4.39776 7.19244 4.24355C7.47364 4.08027 7.81834 4.08027 8.09954 4.24355L12.4173 6.70178C12.6985 6.86506 12.8799 7.1644 12.8799 7.49096C12.8799 7.81751 12.7076 8.11686 12.4173 8.28013L8.09954 10.7384C7.9544 10.7928 7.80019 10.8381 7.64599 10.8381ZM7.97254 5.54977V9.39586L11.3469 7.47282L7.97254 5.54977ZM14.8665 17.079H3.98132C3.48241 17.079 3.07422 16.6708 3.07422 16.1719C3.07422 15.673 3.48241 15.2648 3.98132 15.2648H14.8665C15.3654 15.2648 15.7736 15.673 15.7736 16.1719C15.7736 16.6708 15.3745 17.079 14.8665 17.079Z" fill="white"/>
</svg>
