<svg width="19" height="18" viewBox="0 0 19 18" fill="none" xmlns="http://www.w3.org/2000/svg">
<path d="M0.441406 3.50864C0.441406 2.502 1.20333 1.66166 2.19999 1.55931L2.24225 1.55543L17.9336 0.279943C18.3619 0.245129 18.7373 0.564107 18.7721 0.9924C18.8062 1.41096 18.5023 1.77903 18.0887 1.82803L18.0597 1.83093L2.36824 3.10642C2.1666 3.12279 2.00958 3.28562 1.99822 3.48542L1.99732 5.23446C2.12547 5.208 2.2582 5.1941 2.39419 5.1941H16.822C17.9005 5.1941 18.7747 6.06841 18.7747 7.14688V15.7721C18.7747 16.8506 17.9005 17.7248 16.822 17.7248H2.39419C1.31572 17.7248 0.441406 16.8506 0.441406 15.7721V3.50864ZM16.822 6.75021H2.39419C2.17513 6.75021 1.99751 6.92782 1.99751 7.14688V15.7721C1.99751 15.9911 2.17508 16.1687 2.39419 16.1687H16.822C17.0411 16.1687 17.2185 15.9912 17.2185 15.7721V7.14688C17.2185 6.92777 17.041 6.75021 16.822 6.75021Z" fill="white"/>
</svg>
