<svg width="20" height="20" viewBox="0 0 20 20" fill="none" xmlns="http://www.w3.org/2000/svg">
<path d="M17.375 17.3011V7.1706L10.0417 2.69633L2.70833 7.1706V17.3011H6.375V14.7377C6.375 13.7488 6.76131 12.8005 7.44894 12.1012C8.13658 11.402 9.06921 11.0091 10.0417 11.0091C11.0141 11.0091 11.9468 11.402 12.6344 12.1012C13.322 12.8005 13.7083 13.7488 13.7083 14.7377V17.3011H17.375ZM11.875 19.1654V14.7377C11.875 14.2433 11.6818 13.7691 11.338 13.4195C10.9942 13.0698 10.5279 12.8734 10.0417 12.8734C9.55544 12.8734 9.08912 13.0698 8.7453 13.4195C8.40149 13.7691 8.20833 14.2433 8.20833 14.7377V19.1654H2.70833C2.2221 19.1654 1.75579 18.969 1.41197 18.6193C1.06815 18.2697 0.875 17.7955 0.875 17.3011V7.1706C0.874997 6.84866 0.956978 6.53221 1.11296 6.25206C1.26894 5.97191 1.49361 5.73761 1.76508 5.57198L9.09842 1.09771C9.38335 0.923863 9.70938 0.832031 10.0417 0.832031C10.374 0.832031 10.7 0.923863 10.9849 1.09771L18.3183 5.57198C18.5897 5.73761 18.8144 5.97191 18.9704 6.25206C19.1264 6.53221 19.2083 6.84866 19.2083 7.1706V17.3011C19.2083 17.7955 19.0152 18.2697 18.6714 18.6193C18.3275 18.969 17.8612 19.1654 17.375 19.1654H11.875Z" fill="white"/>
</svg>
